<svg width="212" height="71" viewBox="0 0 212 71" fill="none" xmlns="http://www.w3.org/2000/svg">
<g clip-path="url(#clip0_4001_79339)">
<path d="M131.259 27.8228H123.594C123.029 27.8228 122.57 28.2913 122.57 28.8694V31.1488C122.57 31.727 123.029 32.1955 123.594 32.1955H128.545C129.111 32.1955 129.569 32.664 129.569 33.2422V45.4566C129.569 46.0348 130.027 46.5033 130.593 46.5033H132.823C133.389 46.5033 133.847 46.0348 133.847 45.4566V30.4677C133.847 29.0057 132.69 27.8228 131.259 27.8228Z" fill="#F15B5B"/>
<path d="M117.181 27.8228H102.426C101.455 27.8228 100.667 28.6276 100.667 29.6204V30.3979C100.667 31.3907 101.455 32.1955 102.426 32.1955H117.181C118.152 32.1955 118.94 31.3907 118.94 30.3979V29.6204C118.94 28.6276 118.152 27.8228 117.181 27.8228Z" fill="#F15B5B"/>
<path d="M117.181 34.9736H102.426C101.455 34.9736 100.667 35.7785 100.667 36.7712V37.5488C100.667 38.5416 101.455 39.3464 102.426 39.3464H117.181C118.152 39.3464 118.94 38.5416 118.94 37.5488V36.7712C118.94 35.7785 118.152 34.9736 117.181 34.9736Z" fill="#F15B5B"/>
<path d="M117.181 42.1274H102.426C101.455 42.1274 100.667 42.9323 100.667 43.9251V44.7026C100.667 45.6954 101.455 46.5002 102.426 46.5002H117.181C118.152 46.5002 118.94 45.6954 118.94 44.7026V43.9251C118.94 42.9323 118.152 42.1274 117.181 42.1274Z" fill="#F15B5B"/>
<path d="M151.784 30.1754L150.913 28.3944C150.539 27.6335 149.476 27.6335 149.106 28.3944L140.979 45.0049C140.644 45.6927 141.132 46.5001 141.883 46.5001H143.628C144.012 46.5001 144.36 46.2775 144.532 45.9286L151.784 31.0991C151.927 30.8067 151.927 30.4645 151.784 30.1754Z" fill="#F15B5B"/>
<path d="M159.037 45.005L154.606 35.9471C154.232 35.1862 153.169 35.1862 152.798 35.9471L148.368 45.005C148.033 45.6928 148.521 46.5002 149.271 46.5002H158.133C158.884 46.5002 159.371 45.6928 159.037 45.005Z" fill="#F15B5B"/>
<path d="M139.113 27.8228H137.098C136.127 27.8228 135.339 28.6276 135.339 29.6204V30.3979C135.339 31.3907 136.127 32.1955 137.098 32.1955H139.113C140.085 32.1955 140.872 31.3907 140.872 30.3979V29.6204C140.872 28.6276 140.085 27.8228 139.113 27.8228Z" fill="#F15B5B"/>
<path d="M95.9539 33.1559V28.6635C95.9539 27.9159 95.0697 27.5404 94.5496 28.0688L87.3818 35.3954C87.06 35.7244 86.5399 35.7244 86.2181 35.3954L79.0796 28.0987C78.5627 27.5703 77.6753 27.9458 77.6753 28.6934V33.1858C77.6753 33.6875 77.8703 34.166 78.2149 34.5216L85.4899 41.9579C86.2116 42.6956 87.3818 42.6956 88.1002 41.9579L95.4045 34.4883C95.7523 34.1328 95.9441 33.6543 95.9441 33.1526L95.9539 33.1559Z" fill="#F15B5B"/>
<path d="M79.2163 39.6786C78.6507 39.0971 77.6787 39.5091 77.6787 40.3265V45.5632C77.6787 46.3905 78.6637 46.7959 79.226 46.2012L81.7356 43.5396C82.0769 43.1808 82.0704 42.6059 81.7258 42.2537L79.2163 39.6786Z" fill="#F15B5B"/>
<path d="M94.4194 39.672L91.9034 42.2438C91.5556 42.5994 91.5523 43.1709 91.8904 43.5331L94.4064 46.2012C94.9688 46.796 95.9537 46.3906 95.9537 45.5633V40.3199C95.9537 39.4992 94.985 39.0905 94.4194 39.6687V39.672Z" fill="#F15B5B"/>
<path d="M34.2232 33.6411H28.6451C28.2788 33.6411 27.9819 33.9446 27.9819 34.319V34.6147C27.9819 34.989 28.2788 35.2925 28.6451 35.2925H34.2232C34.5895 35.2925 34.8864 34.989 34.8864 34.6147V34.319C34.8864 33.9446 34.5895 33.6411 34.2232 33.6411Z" fill="#F15B5B"/>
<path d="M31.5999 36.3428H28.6451C28.2788 36.3428 27.9819 36.6463 27.9819 37.0206V37.3163C27.9819 37.6907 28.2788 37.9942 28.6451 37.9942H31.5999C31.9662 37.9942 32.2631 37.6907 32.2631 37.3163V37.0206C32.2631 36.6463 31.9662 36.3428 31.5999 36.3428Z" fill="#F15B5B"/>
<path d="M34.2232 39.0474H28.6451C28.2788 39.0474 27.9819 39.3508 27.9819 39.7252V40.0209C27.9819 40.3953 28.2788 40.6988 28.6451 40.6988H34.2232C34.5895 40.6988 34.8864 40.3953 34.8864 40.0209V39.7252C34.8864 39.3508 34.5895 39.0474 34.2232 39.0474Z" fill="#F15B5B"/>
<path d="M67.2047 33.6411H61.6265C61.2603 33.6411 60.9634 33.9446 60.9634 34.319V34.6147C60.9634 34.989 61.2603 35.2925 61.6265 35.2925H67.2047C67.5709 35.2925 67.8678 34.989 67.8678 34.6147V34.319C67.8678 33.9446 67.5709 33.6411 67.2047 33.6411Z" fill="#F15B5B"/>
<path d="M64.5814 36.3428H61.6265C61.2603 36.3428 60.9634 36.6463 60.9634 37.0206V37.3163C60.9634 37.6907 61.2603 37.9942 61.6265 37.9942H64.5814C64.9476 37.9942 65.2445 37.6907 65.2445 37.3163V37.0206C65.2445 36.6463 64.9476 36.3428 64.5814 36.3428Z" fill="#F15B5B"/>
<path d="M67.2047 39.0474H61.6265C61.2603 39.0474 60.9634 39.3508 60.9634 39.7252V40.0209C60.9634 40.3953 61.2603 40.6988 61.6265 40.6988H67.2047C67.5709 40.6988 67.8678 40.3953 67.8678 40.0209V39.7252C67.8678 39.3508 67.5709 39.0474 67.2047 39.0474Z" fill="#F15B5B"/>
<path d="M47.4663 34.1927C47.1705 33.4351 46.1205 33.4351 45.8247 34.1927L43.7638 39.4626C43.533 40.0574 43.9588 40.702 44.583 40.702H48.7016C49.3257 40.702 49.7548 40.0574 49.5207 39.4626L47.4598 34.1927H47.4663Z" fill="#F15B5B"/>
<path d="M24.5588 33.6245H16.884C16.2598 33.6245 15.8308 34.2691 16.0648 34.8639L18.1257 40.1338C18.4215 40.8914 19.4715 40.8914 19.7673 40.1338L20.723 37.6882L21.6787 40.1338C21.9745 40.8914 23.0245 40.8914 23.3203 40.1338L25.3813 34.8639C25.6121 34.2725 25.1862 33.6245 24.5621 33.6245H24.5588Z" fill="#F15B5B"/>
<path d="M56.4901 33.6377H53.1939C52.9696 33.6377 52.7876 33.8238 52.7876 34.053V37.203C52.7876 37.4323 52.9696 37.6184 53.1939 37.6184H56.4901C57.5661 37.6184 58.4373 36.7279 58.4373 35.628C58.4373 34.5282 57.5661 33.6377 56.4901 33.6377Z" fill="#F15B5B"/>
<path d="M57.9042 39.8648L56.3764 38.5623C56.2951 38.4925 56.1878 38.4526 56.0805 38.4526H53.2492C52.9956 38.4526 52.7876 38.662 52.7876 38.9245V40.227C52.7876 40.4862 52.9924 40.6988 53.2492 40.6988H57.6084C58.0407 40.6988 58.2357 40.1472 57.9042 39.8648Z" fill="#F15B5B"/>
<path d="M180.651 39.5022C180.543 39.1367 180.085 39.037 179.838 39.3228L178.671 40.6419C178.599 40.725 178.557 40.8347 178.554 40.9443V45.9849C178.547 46.2607 178.762 46.4867 179.032 46.4867H182.068C182.386 46.4867 182.614 46.1743 182.523 45.862L180.654 39.5022H180.651Z" fill="#F15B5B"/>
<path d="M181.183 38.0802C181.242 38.1433 181.313 38.1899 181.395 38.2131L183.306 38.7747C183.55 38.8444 183.807 38.6982 183.872 38.4457L186.072 31.0659C186.115 30.9097 186.072 30.7402 185.962 30.6239L180.439 24.6463C180.198 24.3871 179.773 24.4901 179.668 24.8324L179.174 26.5037C179.139 26.6233 179.061 26.723 178.953 26.7795L174.23 29.3613C173.967 29.5042 173.908 29.8664 174.11 30.089L181.183 38.0802Z" fill="#F15B5B"/>
<path d="M188.302 30.8401C188.101 30.4513 187.545 30.5078 187.418 30.9265L185.435 37.5222C185.357 37.7813 185.5 38.0571 185.754 38.1369L192.2 40.1637C192.61 40.2933 192.967 39.8514 192.766 39.4626L188.302 30.8434V30.8401Z" fill="#F15B5B"/>
<path d="M195.292 32.023L191.882 33.8672C191.648 33.9934 191.557 34.2925 191.68 34.5317L193.488 38.0173C193.689 38.4027 194.245 38.3496 194.372 37.9309L195.974 32.6012C196.101 32.1825 195.669 31.817 195.288 32.023H195.292Z" fill="#F15B5B"/>
<path d="M178.752 37.6248L171.23 29.0986C171.084 28.9325 170.843 28.8893 170.648 28.9989L163.178 33.179C162.811 33.385 162.668 33.8535 162.853 34.2356L166.24 41.1636C166.377 41.4427 166.659 41.6155 166.965 41.6055L170.177 41.4992C170.378 41.4925 170.56 41.6121 170.635 41.8015L172.374 46.1809C172.446 46.3637 172.621 46.4833 172.813 46.4833H176.574C176.837 46.4833 177.049 46.2673 177.049 45.9982V40.3993C177.049 40.2797 177.091 40.1634 177.169 40.077L178.749 38.2728C178.911 38.0867 178.911 37.8076 178.749 37.6248H178.752Z" fill="#F15B5B"/>
</g>
<defs>
<clipPath id="clip0_4001_79339">
<rect width="180" height="22" fill="white" transform="translate(16 24.5)"/>
</clipPath>
</defs>
</svg>
