<svg width="212" height="71" viewBox="0 0 212 71" fill="none" xmlns="http://www.w3.org/2000/svg">
<path d="M46.0775 37.141C46.6735 37.1397 47.262 37.2732 47.799 37.5315C48.1079 36.1826 48.1088 34.7814 47.8016 33.4321C47.4944 32.0828 46.8871 30.8201 46.0247 29.7379C45.1623 28.6557 44.067 27.7817 42.8203 27.1811C41.5737 26.5805 40.2076 26.2685 38.8238 26.2686C38.1885 26.2686 37.5549 26.3338 36.9329 26.4632C37.6128 27.5587 37.9385 28.8372 37.8655 30.1245C37.7925 31.4118 37.3243 32.6452 36.5248 33.6568C35.7254 34.6684 34.6334 35.4089 33.3978 35.7773C32.1622 36.1458 30.8431 36.1243 29.6201 35.7158C29.6594 37.2728 30.093 38.7944 30.8805 40.1381C31.668 41.4819 32.7836 42.6038 34.1228 43.399C35.462 44.1941 36.9811 44.6364 38.5379 44.6845C40.0946 44.7326 41.6381 44.3849 43.0239 43.674C42.5395 43.093 42.2307 42.386 42.1336 41.6358C42.0365 40.8857 42.1552 40.1234 42.4758 39.4382C42.7963 38.7531 43.3055 38.1735 43.9436 37.7673C44.5817 37.3611 45.3224 37.1452 46.0788 37.1447L46.0775 37.141Z" fill="#00CFC5"/>
<path d="M47.7987 37.5312C47.4982 38.84 46.9155 40.0673 46.0914 41.1274C45.2673 42.1875 44.2215 43.0548 43.0273 43.6687C43.408 44.1258 43.8863 44.4917 44.427 44.7395C44.9677 44.9874 45.5571 45.1108 46.1518 45.1008C46.7465 45.0909 47.3314 44.9477 47.8635 44.6818C48.3956 44.4159 48.8613 44.0341 49.2264 43.5645C49.5914 43.0949 49.8466 42.5495 49.973 41.9683C50.0995 41.3871 50.094 40.7849 49.9571 40.2061C49.8201 39.6273 49.5551 39.0865 49.1816 38.6236C48.8081 38.1607 48.3355 37.7874 47.7987 37.5312Z" fill="#CA30FF"/>
<path d="M36.9314 26.463C36.4006 25.6079 35.6717 24.8931 34.8064 24.3791C33.941 23.8651 32.9647 23.5671 31.9598 23.5101C30.9549 23.4531 29.9511 23.6388 29.0332 24.0517C28.1153 24.4645 27.3102 25.0923 26.6862 25.882C26.0621 26.6716 25.6373 27.5999 25.4477 28.5883C25.2581 29.5768 25.3093 30.5964 25.5969 31.5609C25.8845 32.5254 26.4001 33.4065 27.1001 34.1297C27.8002 34.8529 28.664 35.3969 29.6187 35.7157C29.6187 35.6366 29.6124 35.5575 29.6124 35.4784C29.6127 33.364 30.3402 31.3141 31.6729 29.6726C33.0055 28.0311 34.8622 26.8978 36.9314 26.463Z" fill="#007EFF"/>
<path d="M36.0386 34.2025C37.0384 33.2022 37.6707 31.8932 37.8328 30.4882C37.9949 29.0832 37.6772 27.6646 36.9313 26.4629C34.8621 26.8977 33.0055 28.0309 31.6728 29.6724C30.3402 31.314 29.6126 33.3639 29.6123 35.4783C29.6123 35.5574 29.6123 35.6365 29.6186 35.7156C30.7236 36.085 31.9097 36.1391 33.0437 35.8718C34.1777 35.6045 35.2148 35.0265 36.0386 34.2025Z" fill="#BFF3F1"/>
<path d="M66.7472 40.5448V41.926C66.7472 42.031 66.7055 42.1318 66.6314 42.2061C66.5572 42.2805 66.4567 42.3225 66.3516 42.3228H59.7822V28.7771C59.7821 28.7251 59.7922 28.6735 59.812 28.6254C59.8318 28.5773 59.8609 28.5335 59.8976 28.4967C59.9344 28.4598 59.978 28.4306 60.0261 28.4106C60.0742 28.3906 60.1257 28.3804 60.1777 28.3804H61.8101C61.8622 28.3802 61.9139 28.3904 61.9621 28.4102C62.0103 28.4301 62.0541 28.4593 62.091 28.4962C62.1279 28.5331 62.1571 28.5769 62.177 28.6251C62.1968 28.6733 62.207 28.725 62.2068 28.7771V40.1518H66.3567C66.4603 40.1531 66.5592 40.195 66.6322 40.2685C66.7052 40.342 66.7465 40.4412 66.7472 40.5448Z" fill="black"/>
<path d="M78.0063 32.9081V41.926C78.0063 42.0312 77.9645 42.1321 77.8901 42.2065C77.8157 42.281 77.7147 42.3228 77.6095 42.3228H76.1153C76.0101 42.3228 75.9092 42.281 75.8348 42.2065C75.7603 42.1321 75.7185 42.0312 75.7185 41.926V40.9968C75.3974 41.4987 74.9413 41.8999 74.4026 42.1545C73.8717 42.4258 73.2849 42.5698 72.6887 42.5751C71.9868 42.5838 71.2911 42.4439 70.6471 42.1645C70.0451 41.9013 69.5039 41.5166 69.0575 41.0345C68.6147 40.5564 68.265 39.9998 68.0266 39.3934C67.5361 38.1241 67.5361 36.7175 68.0266 35.4482C68.2637 34.8377 68.6134 34.2772 69.0575 33.7958C69.5039 33.3137 70.0451 32.929 70.6471 32.6658C71.2893 32.3882 71.9829 32.2491 72.6825 32.2577C73.2788 32.2629 73.8657 32.4073 74.3964 32.6796C74.9352 32.9334 75.3914 33.3342 75.7123 33.836V32.9069C75.7119 32.8541 75.7221 32.8017 75.7423 32.753C75.7625 32.7042 75.7923 32.6599 75.8299 32.6228C75.8674 32.5858 75.912 32.5566 75.9611 32.537C76.0101 32.5174 76.0625 32.5078 76.1153 32.5088H77.6095C77.6619 32.5087 77.7137 32.5189 77.7621 32.5389C77.8105 32.559 77.8544 32.5884 77.8913 32.6256C77.9282 32.6627 77.9574 32.7068 77.9771 32.7553C77.9969 32.8038 78.0068 32.8557 78.0063 32.9081ZM72.808 40.5297C73.2181 40.5353 73.6243 40.4495 73.9971 40.2786C74.3443 40.118 74.6556 39.8891 74.9124 39.6056C75.1702 39.3165 75.3701 38.9806 75.5013 38.6162C75.7827 37.8411 75.7827 36.9918 75.5013 36.2167C75.3701 35.8526 75.1702 35.5172 74.9124 35.2285C74.656 34.9442 74.3446 34.7148 73.9971 34.5542C73.6243 34.3833 73.2181 34.2975 72.808 34.3031C72.4015 34.2966 71.9988 34.3825 71.6302 34.5542C71.2867 34.7166 70.9789 34.9459 70.7249 35.2285C70.4681 35.5161 70.2713 35.852 70.1461 36.2167C69.8799 36.9944 69.8799 37.8385 70.1461 38.6162C70.2689 38.9788 70.4637 39.313 70.7187 39.5987C70.9737 39.8843 71.2838 40.1156 71.6302 40.2786C71.9988 40.4503 72.4015 40.5362 72.808 40.5297Z" fill="black"/>
<path d="M81.0788 32.509H82.5855C82.6376 32.5088 82.6891 32.5189 82.7373 32.5387C82.7854 32.5585 82.8292 32.5876 82.866 32.6244C82.9029 32.6611 82.9321 32.7048 82.9521 32.7528C82.972 32.8009 82.9823 32.8525 82.9823 32.9045V33.8763C83.2797 33.3539 83.7266 32.9324 84.2655 32.6659C84.8612 32.383 85.5148 32.2432 86.1741 32.2579C86.7933 32.2385 87.4087 32.3609 87.9734 32.6157C88.4333 32.8336 88.8287 33.1672 89.121 33.5838C89.362 33.9555 89.5299 34.3697 89.6158 34.8043C89.7157 35.3598 89.7615 35.9237 89.7526 36.488V41.9261C89.7523 42.0313 89.7104 42.132 89.636 42.2063C89.5617 42.2807 89.461 42.3226 89.3558 42.3229H87.8491C87.7439 42.3229 87.6429 42.2811 87.5685 42.2067C87.4941 42.1323 87.4523 42.0314 87.4523 41.9261V37.2477C87.4547 36.8522 87.4193 36.4574 87.3468 36.0687C87.2892 35.738 87.1718 35.4206 87.0003 35.132C86.8387 34.8732 86.614 34.6598 86.3474 34.5117C86.0329 34.3473 85.6812 34.2673 85.3265 34.2794C84.5271 34.2794 83.9345 34.5636 83.5486 35.132C83.1627 35.7003 82.9698 36.4056 82.9698 37.2477V41.9261C82.9698 42.0314 82.9279 42.1323 82.8535 42.2067C82.7791 42.2811 82.6782 42.3229 82.573 42.3229H81.0662C80.961 42.3229 80.8601 42.2811 80.7857 42.2067C80.7113 42.1323 80.6695 42.0314 80.6695 41.9261V32.9083C80.6689 32.8548 80.6792 32.8018 80.6997 32.7525C80.7202 32.7031 80.7505 32.6584 80.7888 32.6211C80.827 32.5838 80.8724 32.5546 80.9223 32.5354C80.9721 32.5161 81.0254 32.5071 81.0788 32.509Z" fill="black"/>
<path d="M99.9798 40.9929C99.6586 41.4947 99.2025 41.8959 98.6639 42.1506C98.1325 42.4219 97.5453 42.5659 96.9487 42.5712C96.2472 42.5798 95.5519 42.4398 94.9083 42.1606C94.3063 41.8974 93.7651 41.5127 93.3187 41.0305C92.8755 40.5528 92.5258 39.9961 92.2878 39.3895C91.7973 38.1201 91.7973 36.7136 92.2878 35.4443C92.5245 34.835 92.8738 34.2757 93.3174 33.7957C93.7639 33.3135 94.305 32.9288 94.9071 32.6656C95.5512 32.3871 96.247 32.248 96.9487 32.2575C97.5455 32.2627 98.1328 32.4071 98.6639 32.6794C99.2027 32.9332 99.6589 33.3341 99.9798 33.8358V28.7757C99.9796 28.7235 99.9898 28.6719 100.01 28.6236C100.03 28.5754 100.059 28.5316 100.096 28.4948C100.132 28.4579 100.176 28.4287 100.225 28.4088C100.273 28.3889 100.324 28.3787 100.377 28.3789H101.877C101.982 28.3789 102.083 28.4207 102.158 28.4951C102.232 28.5695 102.274 28.6705 102.274 28.7757V41.9258C102.273 42.0309 102.232 42.1317 102.157 42.206C102.083 42.2803 101.982 42.3223 101.877 42.3226H100.377C100.271 42.3226 100.17 42.2808 100.096 42.2064C100.022 42.132 99.9798 42.031 99.9798 41.9258V40.9929ZM97.0755 40.5296C97.4856 40.5352 97.8918 40.4494 98.2646 40.2784C98.6118 40.1178 98.9231 39.8889 99.1799 39.6054C99.4373 39.316 99.6371 38.9802 99.7688 38.616C100.05 37.8409 100.05 36.9916 99.7688 36.2165C99.6371 35.8527 99.4372 35.5173 99.1799 35.2283C98.9235 34.944 98.6121 34.7147 98.2646 34.5541C97.8918 34.3831 97.4856 34.2973 97.0755 34.3029C96.6686 34.2966 96.2655 34.3825 95.8965 34.5541C95.5507 34.7179 95.2413 34.9494 94.9866 35.235C94.7318 35.5205 94.537 35.8543 94.4136 36.2165C94.1475 36.9942 94.1475 37.8383 94.4136 38.616C94.5365 38.9785 94.7311 39.3125 94.9859 39.5981C95.2407 39.8837 95.5504 40.1151 95.8965 40.2784C96.2655 40.45 96.6686 40.5359 97.0755 40.5296Z" fill="black"/>
<path d="M113.448 32.5089H114.948C115 32.5088 115.052 32.5189 115.1 32.5387C115.148 32.5585 115.192 32.5876 115.229 32.6243C115.265 32.6611 115.295 32.7047 115.315 32.7528C115.335 32.8009 115.345 32.8524 115.345 32.9044V33.8763C115.642 33.3539 116.089 32.9323 116.628 32.6659C117.226 32.3819 117.882 32.2422 118.544 32.2578C119.163 32.2387 119.779 32.3611 120.343 32.6157C120.803 32.8339 121.198 33.1675 121.49 33.5837C121.731 33.9554 121.899 34.3697 121.985 34.8042C122.084 35.3597 122.13 35.9236 122.121 36.488V41.9261C122.121 42.0312 122.079 42.1319 122.005 42.2063C121.93 42.2806 121.83 42.3225 121.725 42.3229H120.218C120.113 42.3229 120.012 42.2811 119.937 42.2066C119.863 42.1322 119.821 42.0313 119.821 41.9261V37.2476C119.823 36.8522 119.788 36.4574 119.716 36.0686C119.658 35.7379 119.541 35.4205 119.369 35.1319C119.207 34.8732 118.983 34.6598 118.716 34.5116C118.402 34.3473 118.05 34.2673 117.695 34.2794C116.895 34.2794 116.302 34.5635 115.917 35.1319C115.532 35.7003 115.339 36.4055 115.339 37.2476V41.9261C115.339 42.0313 115.297 42.1322 115.222 42.2066C115.148 42.2811 115.047 42.3229 114.942 42.3229H113.448C113.342 42.3225 113.242 42.2806 113.167 42.2063C113.093 42.1319 113.051 42.0312 113.051 41.9261V32.9082C113.05 32.8559 113.06 32.804 113.08 32.7556C113.1 32.7072 113.129 32.6631 113.166 32.626C113.203 32.5889 113.247 32.5595 113.295 32.5394C113.343 32.5193 113.395 32.5089 113.448 32.5089Z" fill="black"/>
<path d="M134.684 42.8051C134.702 43.531 134.577 44.2533 134.316 44.9309C134.091 45.4917 133.733 45.9897 133.274 46.3824C132.794 46.7781 132.234 47.0655 131.633 47.2249C130.912 47.4167 130.168 47.5088 129.423 47.4986C128.692 47.5151 127.965 47.3972 127.277 47.1508C126.717 46.9466 126.203 46.6358 125.761 46.2355C125.365 45.8712 125.046 45.4304 124.825 44.9397C124.676 44.6096 124.569 44.262 124.508 43.905C124.498 43.8478 124.5 43.789 124.515 43.7327C124.53 43.6765 124.557 43.6242 124.594 43.5794C124.632 43.5347 124.678 43.4986 124.731 43.4738C124.783 43.4489 124.841 43.4358 124.899 43.4354H126.442C126.531 43.4361 126.617 43.4667 126.687 43.5223C126.757 43.5778 126.806 43.6551 126.826 43.7418C126.941 44.1653 127.178 44.5457 127.508 44.8355C127.942 45.2347 128.574 45.4344 129.403 45.4344C130.328 45.4344 131.05 45.2276 131.57 44.8141C132.09 44.4006 132.349 43.7309 132.348 42.8051V40.9933C132.027 41.4951 131.571 41.8963 131.033 42.1509C130.502 42.4222 129.915 42.5662 129.319 42.5716C128.617 42.5802 127.921 42.4403 127.277 42.161C126.675 41.8978 126.134 41.513 125.687 41.0309C125.245 40.5529 124.895 39.9963 124.656 39.3898C124.166 38.1205 124.166 36.714 124.656 35.4447C124.894 34.8342 125.243 34.2736 125.687 33.7923C126.134 33.3101 126.675 32.9254 127.277 32.6622C127.921 32.385 128.617 32.2472 129.319 32.2579C129.915 32.2631 130.502 32.4075 131.033 32.6798C131.571 32.9336 132.028 33.3344 132.348 33.8362V32.9071C132.348 32.8549 132.358 32.8032 132.378 32.7549C132.398 32.7066 132.427 32.6627 132.463 32.6258C132.5 32.5888 132.544 32.5594 132.592 32.5394C132.64 32.5193 132.692 32.509 132.744 32.509H134.251C134.355 32.509 134.456 32.5505 134.53 32.6243C134.605 32.6982 134.647 32.7985 134.647 32.9033L134.684 42.8051ZM129.444 34.3033C129.038 34.2968 128.635 34.3827 128.266 34.5544C127.923 34.7168 127.615 34.9461 127.361 35.2287C127.104 35.5163 126.907 35.8522 126.782 36.2169C126.516 36.9946 126.516 37.8387 126.782 38.6164C126.905 38.979 127.1 39.3132 127.355 39.5989C127.61 39.8845 127.92 40.1158 128.266 40.2788C128.635 40.4505 129.038 40.5364 129.444 40.5299C129.854 40.5355 130.26 40.4497 130.633 40.2788C130.98 40.1182 131.292 39.8893 131.549 39.6058C131.806 39.3167 132.006 38.9808 132.137 38.6164C132.419 37.8413 132.419 36.992 132.137 36.2169C132.006 35.8528 131.806 35.5174 131.549 35.2287C131.292 34.9444 130.981 34.715 130.633 34.5544C130.261 34.3826 129.854 34.296 129.444 34.3008V34.3033Z" fill="black"/>
<path d="M151.877 37.5414C151.882 38.2237 151.775 38.9023 151.562 39.5504C151.364 40.1525 151.045 40.7079 150.625 41.1827C150.203 41.6507 149.687 42.0235 149.11 42.2763C148.462 42.5541 147.763 42.6915 147.058 42.6794C146.36 42.6911 145.668 42.5546 145.028 42.2788C144.45 42.027 143.935 41.6495 143.521 41.1739C143.108 40.693 142.793 40.1353 142.596 39.5328C142.424 39.0196 142.322 38.4859 142.292 37.9457C142.289 37.8914 142.297 37.8371 142.315 37.7861C142.334 37.735 142.363 37.6882 142.4 37.6487C142.437 37.6091 142.482 37.5775 142.532 37.5558C142.582 37.5341 142.635 37.5228 142.69 37.5226H144.322C144.423 37.5234 144.52 37.5628 144.593 37.6329C144.666 37.7029 144.71 37.7982 144.715 37.8992C144.763 38.6158 144.952 39.2114 145.283 39.686C145.668 40.241 146.261 40.518 147.061 40.5172C147.86 40.5164 148.46 40.2431 148.86 39.6973C149.259 39.1498 149.459 38.4341 149.46 37.5502V28.7859C149.46 28.7339 149.47 28.6823 149.49 28.6342C149.51 28.5861 149.539 28.5423 149.575 28.5055C149.612 28.4686 149.656 28.4393 149.704 28.4194C149.752 28.3994 149.803 28.3892 149.856 28.3892H151.488C151.54 28.389 151.592 28.3991 151.64 28.419C151.688 28.4389 151.732 28.4681 151.769 28.505C151.806 28.5419 151.835 28.5857 151.855 28.6339C151.875 28.6821 151.885 28.7338 151.885 28.7859L151.877 37.5414Z" fill="black"/>
<path d="M159.264 42.5715C158.535 42.5826 157.811 42.4428 157.138 42.161C156.526 41.9 155.975 41.5152 155.518 41.0309C155.069 40.5556 154.715 39.9985 154.476 39.3898C153.986 38.1205 153.986 36.7139 154.476 35.4446C154.714 34.8319 155.068 34.2708 155.518 33.7922C155.975 33.3079 156.526 32.9232 157.138 32.6622C157.811 32.3803 158.535 32.2405 159.264 32.2516C159.996 32.2416 160.722 32.3813 161.399 32.6622C162.017 32.9232 162.575 33.3077 163.04 33.7922C163.495 34.2686 163.853 34.8301 164.092 35.4446C164.584 36.7136 164.584 38.1208 164.092 39.3898C163.851 40.0002 163.494 40.5577 163.04 41.0309C162.575 41.5154 162.017 41.9 161.399 42.161C160.722 42.4419 159.996 42.5816 159.264 42.5715ZM159.264 40.5299C159.674 40.5355 160.08 40.4497 160.453 40.2788C160.8 40.1182 161.112 39.8893 161.368 39.6058C161.626 39.3163 161.826 38.9805 161.957 38.6163C162.239 37.8413 162.239 36.9919 161.957 36.2168C161.826 35.853 161.626 35.5176 161.368 35.2287C161.112 34.9444 160.801 34.715 160.453 34.5544C160.08 34.3835 159.674 34.2977 159.264 34.3033C158.857 34.2966 158.454 34.3825 158.085 34.5544C157.739 34.7179 157.429 34.9492 157.175 35.2346C156.92 35.5199 156.725 35.8535 156.601 36.2156C156.333 36.993 156.333 37.8377 156.601 38.6151C156.724 38.9775 156.918 39.3116 157.173 39.5972C157.428 39.8828 157.738 40.1142 158.084 40.2775C158.453 40.45 158.857 40.5363 159.264 40.5299Z" fill="black"/>
<path d="M168.695 42.319H167.188C167.136 42.319 167.085 42.3088 167.036 42.2888C166.988 42.2689 166.945 42.2397 166.908 42.2028C166.871 42.166 166.842 42.1222 166.822 42.0741C166.802 42.0259 166.792 41.9744 166.792 41.9222V28.7771C166.791 28.725 166.801 28.6733 166.821 28.6251C166.841 28.5769 166.87 28.5331 166.907 28.4962C166.944 28.4593 166.988 28.4301 167.036 28.4102C167.084 28.3904 167.136 28.3802 167.188 28.3804H168.695C168.8 28.3804 168.901 28.4222 168.976 28.4966C169.05 28.571 169.092 28.6719 169.092 28.7771V33.8373C169.412 33.3356 169.868 32.9347 170.406 32.6809C170.938 32.4087 171.525 32.2643 172.122 32.259C172.823 32.2505 173.519 32.3905 174.163 32.6696C174.765 32.9333 175.305 33.318 175.752 33.7996C176.196 34.281 176.546 34.8415 176.784 35.452C177.274 36.7213 177.274 38.1279 176.784 39.3972C176.545 40.0037 176.195 40.5603 175.752 41.0383C175.305 41.52 174.765 41.9046 174.163 42.1683C173.519 42.4475 172.823 42.5874 172.122 42.5789C171.525 42.5735 170.938 42.4295 170.406 42.1583C169.868 41.9036 169.412 41.5024 169.092 41.0006V41.926C169.09 42.0305 169.048 42.1303 168.974 42.2038C168.9 42.2773 168.799 42.3187 168.695 42.319ZM171.996 40.5298C172.403 40.5362 172.805 40.4504 173.174 40.2786C173.517 40.116 173.825 39.8873 174.079 39.6056C174.336 39.3173 174.532 38.981 174.658 38.6162C174.924 37.8385 174.924 36.9944 174.658 36.2167C174.532 35.8523 174.335 35.5164 174.079 35.2285C173.825 34.9462 173.517 34.717 173.174 34.5543C172.805 34.3825 172.403 34.2967 171.996 34.3031C171.596 34.2958 171.199 34.3748 170.832 34.5347C170.465 34.6946 170.137 34.9317 169.87 35.2298C169.613 35.5174 169.417 35.8533 169.291 36.218C169.025 36.9957 169.025 37.8398 169.291 38.6175C169.417 38.9825 169.613 39.3188 169.87 39.6069C170.127 39.8904 170.438 40.1193 170.786 40.2799C171.166 40.452 171.579 40.5373 171.996 40.5298Z" fill="black"/>
<path d="M183.991 36.7845C184.327 36.9101 184.656 37.0444 184.98 37.1838C185.291 37.3178 185.582 37.4949 185.843 37.7099C186.093 37.9166 186.297 38.1732 186.442 38.4633C186.601 38.8127 186.677 39.1945 186.663 39.5782C186.674 40.0403 186.57 40.498 186.359 40.9092C186.158 41.2848 185.87 41.6062 185.518 41.8459C185.135 42.1019 184.71 42.2869 184.262 42.3921C183.766 42.5138 183.257 42.5741 182.747 42.5716C182.232 42.5742 181.721 42.4962 181.231 42.3406C180.768 42.1935 180.336 41.9614 179.958 41.6563C179.587 41.353 179.287 40.9725 179.079 40.5413C178.914 40.1968 178.811 39.8256 178.775 39.4452C178.77 39.3903 178.777 39.3351 178.794 39.283C178.812 39.2309 178.84 39.183 178.878 39.1425C178.915 39.1019 178.96 39.0696 179.011 39.0476C179.061 39.0255 179.115 39.0143 179.171 39.0145H180.611C180.709 39.0161 180.803 39.0536 180.876 39.12C180.949 39.1863 180.995 39.277 181.005 39.3748C181.061 39.8319 181.233 40.1646 181.521 40.3731C181.92 40.6444 182.396 40.7808 182.878 40.7623C183.27 40.7742 183.659 40.6878 184.008 40.5112C184.316 40.3429 184.47 40.0491 184.47 39.6322C184.479 39.4329 184.412 39.2378 184.282 39.086C184.12 38.9206 183.926 38.7884 183.713 38.6968C183.405 38.5557 183.089 38.4325 182.767 38.3276C182.387 38.2021 181.938 38.0409 181.419 37.8442C181.1 37.7249 180.787 37.5878 180.483 37.4336C180.208 37.2979 179.955 37.1242 179.729 36.9176C179.514 36.7129 179.348 36.461 179.246 36.1818C179.125 35.8371 179.068 35.4733 179.078 35.1082C179.068 34.6828 179.17 34.2623 179.371 33.8878C179.57 33.5352 179.843 33.2302 180.171 32.9938C180.523 32.7406 180.919 32.5549 181.339 32.4463C181.803 32.3241 182.281 32.2637 182.76 32.2668C183.259 32.2624 183.754 32.3474 184.223 32.5179C184.659 32.6743 185.062 32.9097 185.412 33.2122C185.747 33.5049 186.019 33.863 186.211 34.2645C186.343 34.5382 186.432 34.8309 186.474 35.1321C186.483 35.1887 186.479 35.2465 186.463 35.3016C186.447 35.3566 186.42 35.4076 186.383 35.451C186.345 35.4945 186.299 35.5294 186.247 35.5535C186.195 35.5775 186.139 35.5901 186.081 35.5904H184.65C184.555 35.5915 184.463 35.5589 184.39 35.4984C184.317 35.4379 184.268 35.3535 184.252 35.2602C184.217 34.9732 184.097 34.7033 183.907 34.4854C183.662 34.2117 183.259 34.0749 182.696 34.0749C182.342 34.0631 181.992 34.1585 181.692 34.3486C181.559 34.4343 181.452 34.5533 181.38 34.6937C181.308 34.8341 181.275 34.9909 181.282 35.1484C181.274 35.3347 181.334 35.5177 181.451 35.6632C181.591 35.817 181.762 35.939 181.953 36.0211C182.176 36.1265 182.455 36.2383 182.794 36.3576C183.133 36.4769 183.541 36.6162 183.991 36.7845Z" fill="black"/>
<path d="M136.87 40.6042C136.865 40.3414 136.913 40.0802 137.012 39.8369C137.112 39.5935 137.26 39.373 137.448 39.1891C137.628 39.003 137.844 38.8557 138.083 38.7564C138.322 38.657 138.579 38.6077 138.838 38.6115C139.1 38.6088 139.36 38.6586 139.603 38.7577C139.846 38.8569 140.067 39.0036 140.253 39.1892C140.438 39.3748 140.585 39.5955 140.684 39.8385C140.783 40.0814 140.833 40.3418 140.83 40.6042C140.834 40.8628 140.785 41.1195 140.685 41.3583C140.586 41.5972 140.439 41.8131 140.253 41.9929C140.069 42.1808 139.848 42.3291 139.605 42.4287C139.362 42.5282 139.1 42.5769 138.838 42.5718C138.316 42.5701 137.817 42.3623 137.448 41.9936C137.08 41.625 136.872 41.1255 136.87 40.6042Z" fill="black"/>
<path d="M107.657 31.0021C107.882 31.0065 108.105 30.9649 108.313 30.8798C108.521 30.7947 108.71 30.668 108.867 30.5074C109.026 30.3534 109.152 30.1685 109.237 29.964C109.322 29.7595 109.365 29.5398 109.362 29.3183C109.364 29.0937 109.322 28.8709 109.237 28.6629C109.152 28.4549 109.027 28.2659 108.868 28.107C108.709 27.9481 108.52 27.8224 108.312 27.7374C108.104 27.6524 107.881 27.6098 107.657 27.612C107.435 27.609 107.216 27.6514 107.011 27.7365C106.807 27.8215 106.622 27.9475 106.468 28.1067C106.307 28.2641 106.18 28.4526 106.095 28.6608C106.01 28.8689 105.969 29.0923 105.973 29.3171C105.974 29.7635 106.152 30.1913 106.467 30.5071C106.783 30.8228 107.21 31.0008 107.657 31.0021Z" fill="black"/>
<path d="M110.779 40.0113H108.815V32.9082C108.815 32.8562 108.804 32.8046 108.785 32.7566C108.765 32.7085 108.735 32.6648 108.698 32.6281C108.662 32.5914 108.618 32.5622 108.57 32.5424C108.522 32.5226 108.47 32.5125 108.418 32.5127H104.881C104.776 32.5127 104.675 32.5543 104.601 32.6285C104.526 32.7026 104.484 32.8032 104.484 32.9082V34.4225C104.484 34.5277 104.526 34.6287 104.6 34.7031C104.675 34.7775 104.776 34.8193 104.881 34.8193H106.521V40.0113H104.557C104.505 40.0111 104.453 40.0213 104.405 40.0411C104.357 40.061 104.313 40.0902 104.276 40.1271C104.239 40.164 104.21 40.2078 104.19 40.256C104.17 40.3042 104.16 40.3559 104.16 40.408V41.9261C104.16 42.0313 104.202 42.1322 104.276 42.2067C104.351 42.2811 104.452 42.3229 104.557 42.3229H110.779C110.884 42.3229 110.985 42.2811 111.059 42.2067C111.134 42.1322 111.175 42.0313 111.175 41.9261V40.408C111.175 40.3559 111.165 40.3042 111.145 40.256C111.126 40.2078 111.096 40.164 111.059 40.1271C111.023 40.0902 110.979 40.061 110.931 40.0411C110.882 40.0213 110.831 40.0111 110.779 40.0113Z" fill="black"/>
</svg>
