<svg width="127" height="20" viewBox="0 0 127 20" fill="none" xmlns="http://www.w3.org/2000/svg">
<path d="M6.96493 12.933V14.3142C6.96493 14.4192 6.9233 14.5199 6.84916 14.5943C6.77502 14.6687 6.67442 14.7106 6.56941 14.711H1.99386e-06V1.16533C-0.000163233 1.11329 0.00994204 1.06172 0.0297448 1.01359C0.0495476 0.965457 0.0786581 0.921705 0.115402 0.884845C0.152146 0.847984 0.195804 0.818739 0.243873 0.798783C0.291941 0.778828 0.343476 0.768556 0.395522 0.768557H2.02783C2.07998 0.768391 2.13165 0.77854 2.17987 0.798421C2.22808 0.818302 2.27188 0.847522 2.30876 0.884399C2.34564 0.921276 2.37486 0.965083 2.39474 1.0133C2.41462 1.06151 2.42477 1.11318 2.42461 1.16533V12.54H6.57443C6.67803 12.5413 6.77697 12.5832 6.84999 12.6567C6.92301 12.7302 6.96428 12.8294 6.96493 12.933V12.933Z" fill="black"/>
<path d="M18.2241 5.29629V14.3142C18.2241 14.4194 18.1823 14.5203 18.1078 14.5947C18.0334 14.6691 17.9325 14.7109 17.8273 14.7109H16.3331C16.2279 14.7109 16.1269 14.6691 16.0525 14.5947C15.9781 14.5203 15.9363 14.4194 15.9363 14.3142V13.385C15.6151 13.8868 15.1591 14.2881 14.6204 14.5427C14.0895 14.814 13.5027 14.958 12.9065 14.9633C12.2046 14.972 11.5088 14.8321 10.8649 14.5527C10.2628 14.2895 9.72166 13.9048 9.27525 13.4227C8.83243 12.9446 8.48281 12.388 8.24438 11.7816C7.75383 10.5123 7.75383 9.10572 8.24438 7.83642C8.48147 7.22591 8.83116 6.66539 9.27525 6.18402C9.72166 5.7019 10.2628 5.31718 10.8649 5.05396C11.5071 4.77636 12.2006 4.6373 12.9002 4.64588C13.4966 4.65105 14.0835 4.79552 14.6141 5.06777C15.153 5.32155 15.6091 5.72243 15.93 6.2242V5.29504C15.9297 5.24225 15.9399 5.18992 15.9601 5.14114C15.9803 5.09237 16.0101 5.04813 16.0476 5.01103C16.0852 4.97394 16.1298 4.94474 16.1788 4.92515C16.2279 4.90557 16.2803 4.896 16.3331 4.89701H17.8273C17.8796 4.89684 17.9315 4.90707 17.9799 4.92711C18.0283 4.94714 18.0722 4.97659 18.1091 5.01373C18.146 5.05088 18.1752 5.09498 18.1949 5.14349C18.2147 5.19199 18.2246 5.24393 18.2241 5.29629ZM13.0258 12.9179C13.4359 12.9235 13.8421 12.8377 14.2149 12.6668C14.5621 12.5062 14.8734 12.2773 15.1302 11.9938C15.388 11.7047 15.5879 11.3688 15.7191 11.0043C16.0005 10.2293 16.0005 9.37994 15.7191 8.60486C15.5878 8.24081 15.3879 7.90535 15.1302 7.61668C14.8738 7.3324 14.5624 7.10303 14.2149 6.94241C13.8421 6.77147 13.4359 6.68569 13.0258 6.69129C12.6193 6.68481 12.2165 6.77068 11.848 6.94241C11.5045 7.10483 11.1967 7.33405 10.9427 7.61668C10.6859 7.90425 10.4891 8.24021 10.3639 8.60486C10.0977 9.38255 10.0977 10.2267 10.3639 11.0043C10.4867 11.367 10.6815 11.7012 10.9365 11.9868C11.1915 12.2725 11.5015 12.5038 11.848 12.6668C12.2165 12.8385 12.6193 12.9244 13.0258 12.9179V12.9179Z" fill="black"/>
<path d="M21.2966 4.89716H22.8033C22.8554 4.897 22.9069 4.9071 22.955 4.92691C23.0032 4.94671 23.0469 4.97582 23.0838 5.01256C23.1207 5.0493 23.1499 5.09296 23.1699 5.14103C23.1898 5.1891 23.2001 5.24063 23.2001 5.29268V6.26453C23.4975 5.74209 23.9444 5.32055 24.4833 5.05411C25.079 4.77114 25.7326 4.63139 26.3919 4.64604C27.0111 4.62664 27.6265 4.74904 28.1912 5.00389C28.6511 5.2218 29.0465 5.55537 29.3388 5.97197C29.5797 6.34368 29.7476 6.75788 29.8335 7.19244C29.9335 7.74796 29.9793 8.31186 29.9704 8.87623V14.3143C29.9701 14.4195 29.9281 14.5202 29.8538 14.5945C29.7795 14.6689 29.6787 14.7108 29.5736 14.7111H28.0669C27.9616 14.7111 27.8607 14.6693 27.7863 14.5949C27.7119 14.5205 27.6701 14.4196 27.6701 14.3143V9.63588C27.6724 9.24041 27.6371 8.84562 27.5646 8.45685C27.507 8.12615 27.3895 7.80874 27.2181 7.52015C27.0565 7.26143 26.8318 7.04799 26.5651 6.89988C26.2507 6.73553 25.899 6.6555 25.5443 6.66759C24.7449 6.66759 24.1523 6.95178 23.7664 7.52015C23.3805 8.08853 23.1875 8.79377 23.1875 9.63588V14.3143C23.1875 14.4196 23.1457 14.5205 23.0713 14.5949C22.9969 14.6693 22.896 14.7111 22.7907 14.7111H21.284C21.1788 14.7111 21.0778 14.6693 21.0034 14.5949C20.929 14.5205 20.8872 14.4196 20.8872 14.3143V5.29645C20.8867 5.24301 20.897 5.19001 20.9175 5.14066C20.938 5.09131 20.9683 5.04663 21.0065 5.00931C21.0448 4.97199 21.0902 4.94282 21.1401 4.92354C21.1899 4.90427 21.2432 4.89529 21.2966 4.89716V4.89716Z" fill="black"/>
<path d="M40.1975 13.3811C39.8764 13.8829 39.4203 14.2841 38.8817 14.5387C38.3503 14.8101 37.7631 14.9541 37.1665 14.9594C36.465 14.9679 35.7696 14.828 35.1261 14.5488C34.5241 14.2856 33.9829 13.9009 33.5365 13.4187C33.0932 12.941 32.7436 12.3843 32.5056 11.7776C32.0151 10.5083 32.0151 9.10178 32.5056 7.83247C32.7423 7.22316 33.0916 6.66387 33.5352 6.18384C33.9816 5.70172 34.5228 5.317 35.1248 5.05378C35.769 4.77524 36.4648 4.63617 37.1665 4.64571C37.7633 4.65086 38.3506 4.79533 38.8817 5.06759C39.4205 5.32137 39.8766 5.72225 40.1975 6.22402V1.16387C40.1974 1.11172 40.2075 1.06005 40.2274 1.01183C40.2473 0.963618 40.2765 0.919813 40.3134 0.882935C40.3503 0.846058 40.3941 0.816837 40.4423 0.796956C40.4905 0.777075 40.5422 0.766926 40.5943 0.767092H42.0948C42.2 0.767092 42.3009 0.808895 42.3754 0.883305C42.4498 0.957715 42.4916 1.05864 42.4916 1.16387V14.314C42.4912 14.4191 42.4493 14.5198 42.375 14.5942C42.3006 14.6685 42.1999 14.7104 42.0948 14.7108H40.5943C40.4891 14.7108 40.3882 14.669 40.3138 14.5946C40.2393 14.5201 40.1975 14.4192 40.1975 14.314V13.3811ZM37.2933 12.9177C37.7034 12.9233 38.1096 12.8376 38.4824 12.6666C38.8296 12.506 39.1409 12.2771 39.3977 11.9936C39.655 11.7042 39.8549 11.3684 39.9866 11.0042C40.268 10.2291 40.268 9.37976 39.9866 8.60468C39.8549 8.24086 39.655 7.90549 39.3977 7.61651C39.1413 7.33223 38.8299 7.10286 38.4824 6.94224C38.1096 6.7713 37.7034 6.68551 37.2933 6.69111C36.8864 6.68479 36.4833 6.77065 36.1143 6.94224C35.7685 7.10606 35.459 7.33761 35.2043 7.62316C34.9496 7.90872 34.7548 8.24248 34.6314 8.60468C34.3652 9.38237 34.3652 10.2265 34.6314 11.0042C34.7543 11.3666 34.9489 11.7006 35.2037 11.9863C35.4584 12.2719 35.7681 12.5033 36.1143 12.6666C36.4833 12.8382 36.8864 12.9241 37.2933 12.9177Z" fill="black"/>
<path d="M53.6653 4.89711H55.1658C55.2179 4.89695 55.2694 4.90705 55.3176 4.92686C55.3657 4.94666 55.4094 4.97577 55.4463 5.01251C55.4832 5.04925 55.5124 5.09291 55.5324 5.14098C55.5523 5.18905 55.5626 5.24058 55.5626 5.29263V6.26448C55.86 5.74204 56.3069 5.3205 56.8458 5.05406C57.4438 4.77011 58.1001 4.63035 58.7619 4.64599C59.3811 4.62685 59.9965 4.74924 60.5612 5.00384C61.0205 5.22212 61.4155 5.55564 61.7076 5.97192C61.9485 6.34363 62.1164 6.75783 62.2023 7.19239C62.3022 7.74791 62.3481 8.31181 62.3392 8.87617V14.3143C62.3388 14.4194 62.2969 14.5201 62.2226 14.5945C62.1483 14.6688 62.0475 14.7107 61.9424 14.711H60.4357C60.3304 14.711 60.2295 14.6692 60.1551 14.5948C60.0807 14.5204 60.0389 14.4195 60.0389 14.3143V9.63583C60.0412 9.24036 60.0059 8.84557 59.9334 8.4568C59.8758 8.1261 59.7583 7.80868 59.5868 7.5201C59.4253 7.26138 59.2006 7.04794 58.9339 6.89983C58.6195 6.73548 58.2677 6.65545 57.9131 6.66754C57.1129 6.66754 56.5202 6.95173 56.1351 7.5201C55.7501 8.08848 55.5571 8.79372 55.5563 9.63583V14.3143C55.5563 14.4195 55.5145 14.5204 55.4401 14.5948C55.3657 14.6692 55.2648 14.711 55.1595 14.711H53.6653C53.5602 14.7107 53.4595 14.6688 53.3851 14.5945C53.3108 14.5201 53.2689 14.4194 53.2686 14.3143V5.2964C53.2682 5.24408 53.2783 5.19222 53.298 5.14379C53.3178 5.09536 53.347 5.05132 53.3839 5.01421C53.4208 4.9771 53.4646 4.94765 53.5129 4.92755C53.5612 4.90746 53.613 4.89711 53.6653 4.89711V4.89711Z" fill="black"/>
<path d="M74.9016 15.1933C74.9197 15.9192 74.7947 16.6415 74.5338 17.3191C74.3086 17.8799 73.951 18.3779 73.4916 18.7706C73.0116 19.1663 72.4518 19.4537 71.8505 19.6131C71.1298 19.8049 70.3863 19.897 69.6406 19.8868C68.91 19.9033 68.1827 19.7854 67.4947 19.539C66.9351 19.3348 66.4204 19.0239 65.9792 18.6237C65.5827 18.2593 65.2641 17.8186 65.0425 17.3279C64.8935 16.9978 64.7872 16.6501 64.7261 16.2932C64.7158 16.236 64.7182 16.1771 64.7331 16.1209C64.748 16.0647 64.7749 16.0123 64.8121 15.9676C64.8493 15.9229 64.8958 15.8868 64.9484 15.8619C65.001 15.8371 65.0584 15.824 65.1166 15.8236H66.6598C66.7488 15.8243 66.8351 15.8549 66.9048 15.9104C66.9744 15.966 67.0235 16.0433 67.044 16.13C67.1591 16.5535 67.3962 16.9338 67.7258 17.2236C68.1602 17.6229 68.7918 17.8226 69.6205 17.8226C70.5455 17.8226 71.2679 17.6158 71.7877 17.2023C72.3075 16.7888 72.567 16.1191 72.5662 15.1933V13.3814C72.245 13.8833 71.789 14.2845 71.2503 14.5391C70.7194 14.8104 70.1326 14.9544 69.5364 14.9598C68.8345 14.9684 68.1387 14.8285 67.4947 14.5492C66.8927 14.286 66.3515 13.9012 65.9051 13.4191C65.4623 12.941 65.1127 12.3845 64.8743 11.778C64.3837 10.5087 64.3837 9.10216 64.8743 7.83285C65.1114 7.22235 65.461 6.66182 65.9051 6.18045C66.3515 5.69833 66.8927 5.31361 67.4947 5.05039C68.1392 4.77321 68.8349 4.63543 69.5364 4.64608C70.1328 4.65125 70.7197 4.79572 71.2503 5.06797C71.7891 5.32175 72.2453 5.72263 72.5662 6.2244V5.29524C72.5659 5.24309 72.5758 5.19138 72.5956 5.14311C72.6153 5.09483 72.6444 5.05093 72.6811 5.01394C72.7179 4.97694 72.7616 4.94759 72.8098 4.92755C72.8579 4.90752 72.9096 4.8972 72.9617 4.89721H74.4685C74.5733 4.8972 74.6738 4.93866 74.7481 5.01253C74.8225 5.0864 74.8646 5.18667 74.8652 5.29147L74.9016 15.1933ZM69.6619 6.69149C69.2554 6.68501 68.8527 6.77088 68.4842 6.94261C68.1406 7.10503 67.8329 7.33425 67.5789 7.61688C67.3221 7.90445 67.1253 8.24041 67 8.60506C66.7339 9.38275 66.7339 10.2269 67 11.0045C67.1229 11.3672 67.3176 11.7014 67.5726 11.987C67.8277 12.2727 68.1377 12.504 68.4842 12.667C68.8527 12.8387 69.2554 12.9246 69.6619 12.9181C70.072 12.9237 70.4782 12.8379 70.851 12.667C71.1982 12.5064 71.5095 12.2775 71.7664 11.994C72.0241 11.7049 72.224 11.369 72.3552 11.0045C72.6366 10.2295 72.6366 9.38014 72.3552 8.60506C72.224 8.24101 72.0241 7.90555 71.7664 7.61688C71.5099 7.3326 71.1985 7.10323 70.851 6.94261C70.4784 6.77081 70.0722 6.68417 69.6619 6.68898V6.69149Z" fill="black"/>
<path d="M92.0948 9.92957C92.0997 10.6119 91.9932 11.2905 91.7797 11.9386C91.5816 12.5407 91.2629 13.0961 90.843 13.5709C90.4212 14.0389 89.9046 14.4117 89.3274 14.6645C88.6797 14.9423 87.9805 15.0797 87.2758 15.0676C86.5783 15.0793 85.8862 14.9427 85.2454 14.667C84.6673 14.4152 84.1526 14.0377 83.7387 13.5621C83.3253 13.0812 83.0109 12.5235 82.8133 11.921C82.6422 11.4077 82.54 10.874 82.5094 10.3339C82.5064 10.2796 82.5144 10.2253 82.533 10.1742C82.5515 10.1232 82.5803 10.0764 82.6176 10.0368C82.6548 9.99725 82.6997 9.96566 82.7495 9.94398C82.7994 9.9223 82.8531 9.91099 82.9074 9.91073H84.5398C84.6409 9.91157 84.738 9.95103 84.8111 10.0211C84.8841 10.0911 84.9276 10.1864 84.9328 10.2874C84.9805 11.004 85.1697 11.5995 85.5003 12.0742C85.8862 12.6292 86.4789 12.9062 87.2783 12.9054C88.0777 12.9046 88.6775 12.6312 89.0776 12.0855C89.4769 11.538 89.6769 10.8223 89.6778 9.93836V1.17412C89.6776 1.12208 89.6877 1.07051 89.7075 1.02238C89.7273 0.974246 89.7564 0.930495 89.7932 0.893635C89.8299 0.856774 89.8736 0.827528 89.9216 0.807572C89.9697 0.787617 90.0212 0.777345 90.0733 0.777346H91.7056C91.7578 0.77718 91.8094 0.787329 91.8576 0.80721C91.9058 0.827091 91.9497 0.856311 91.9865 0.893188C92.0234 0.930066 92.0526 0.973872 92.0725 1.02209C92.0924 1.0703 92.1025 1.12197 92.1024 1.17412L92.0948 9.92957Z" fill="black"/>
<path d="M99.4818 14.9597C98.7525 14.9708 98.0287 14.831 97.356 14.5491C96.744 14.2882 96.1925 13.9034 95.7363 13.4191C95.287 12.9438 94.9332 12.3867 94.6941 11.778C94.2035 10.5087 94.2035 9.10212 94.6941 7.83282C94.9319 7.22007 95.2857 6.659 95.7363 6.18042C96.1925 5.69609 96.744 5.31134 97.356 5.05036C98.0287 4.76847 98.7525 4.62869 99.4818 4.63977C100.214 4.62974 100.94 4.76946 101.616 5.05036C102.235 5.31135 102.793 5.6959 103.257 6.18042C103.713 6.65682 104.071 7.21829 104.31 7.83282C104.802 9.10181 104.802 10.509 104.31 11.778C104.069 12.3884 103.712 12.9459 103.257 13.4191C102.793 13.9036 102.235 14.2881 101.616 14.5491C100.94 14.83 100.214 14.9698 99.4818 14.9597V14.9597ZM99.4818 12.9181C99.8919 12.9237 100.298 12.8379 100.671 12.667C101.018 12.5064 101.329 12.2775 101.586 11.9939C101.844 11.7045 102.043 11.3687 102.175 11.0045C102.456 10.2294 102.456 9.38011 102.175 8.60502C102.043 8.24121 101.843 7.90583 101.586 7.61685C101.33 7.33257 101.018 7.1032 100.671 6.94258C100.298 6.77164 99.8919 6.68586 99.4818 6.69146C99.0748 6.68483 98.6717 6.7707 98.3027 6.94258C97.9568 7.10613 97.6472 7.33742 97.3923 7.62276C97.1374 7.9081 96.9423 8.24168 96.8186 8.60377C96.5507 9.38117 96.5507 10.2259 96.8186 11.0033C96.9415 11.3657 97.1361 11.6997 97.3909 11.9854C97.6457 12.271 97.9554 12.5024 98.3015 12.6657C98.6707 12.8382 99.0743 12.9245 99.4818 12.9181V12.9181Z" fill="black"/>
<path d="M108.913 14.7072H107.406C107.354 14.7072 107.302 14.6969 107.254 14.677C107.206 14.6571 107.162 14.6278 107.125 14.591C107.089 14.5542 107.059 14.5104 107.039 14.4623C107.02 14.4141 107.009 14.3625 107.009 14.3104V1.16533C107.009 1.11318 107.019 1.06151 107.039 1.0133C107.059 0.965083 107.088 0.921276 107.125 0.884399C107.162 0.847522 107.206 0.818302 107.254 0.798421C107.302 0.77854 107.354 0.768391 107.406 0.768557H108.913C109.018 0.768557 109.119 0.810359 109.193 0.884769C109.268 0.959179 109.31 1.0601 109.31 1.16533V6.22549C109.63 5.72376 110.086 5.32286 110.624 5.06906C111.155 4.79692 111.743 4.65246 112.339 4.64717C113.041 4.63873 113.737 4.77864 114.381 5.05776C114.982 5.32147 115.523 5.70614 115.969 6.18782C116.414 6.66914 116.764 7.22966 117.002 7.84022C117.492 9.10952 117.492 10.5161 117.002 11.7854C116.763 12.3919 116.413 12.9485 115.969 13.4265C115.523 13.9082 114.982 14.2928 114.381 14.5565C113.737 14.8356 113.041 14.9756 112.339 14.9671C111.743 14.9617 111.156 14.8177 110.624 14.5465C110.086 14.2918 109.63 13.8906 109.31 13.3888V14.3142C109.308 14.4187 109.266 14.5184 109.192 14.592C109.117 14.6655 109.017 14.7069 108.913 14.7072V14.7072ZM112.214 12.9179C112.62 12.9244 113.023 12.8386 113.392 12.6668C113.735 12.5042 114.042 12.2755 114.297 11.9938C114.553 11.7055 114.75 11.3692 114.876 11.0044C115.142 10.2267 115.142 9.38258 114.876 8.60489C114.75 8.24048 114.553 7.90462 114.297 7.61672C114.043 7.33435 113.735 7.10518 113.392 6.94245C113.023 6.77071 112.62 6.68484 112.214 6.69132C111.814 6.68399 111.417 6.76296 111.05 6.92287C110.683 7.08277 110.355 7.31986 110.088 7.61797C109.831 7.90554 109.634 8.2415 109.509 8.60614C109.243 9.38383 109.243 10.2279 109.509 11.0056C109.634 11.3707 109.831 11.707 110.088 11.9951C110.345 12.2786 110.656 12.5075 111.003 12.6681C111.383 12.8402 111.797 12.9255 112.214 12.9179V12.9179Z" fill="black"/>
<path d="M124.209 9.17267C124.545 9.29824 124.874 9.43259 125.198 9.57196C125.509 9.70593 125.799 9.88304 126.061 10.0981C126.311 10.3048 126.514 10.5614 126.66 10.8514C126.819 11.2009 126.894 11.5827 126.881 11.9664C126.892 12.4285 126.788 12.8861 126.577 13.2974C126.376 13.673 126.087 13.9944 125.735 14.2341C125.353 14.4901 124.928 14.6751 124.48 14.7803C123.984 14.902 123.475 14.9623 122.964 14.9598C122.45 14.9624 121.939 14.8844 121.449 14.7288C120.986 14.5817 120.554 14.3496 120.176 14.0445C119.805 13.7412 119.505 13.3607 119.297 12.9295C119.131 12.5849 119.028 12.2138 118.993 11.8333C118.988 11.7785 118.994 11.7233 119.012 11.6712C119.03 11.619 119.058 11.5712 119.095 11.5306C119.133 11.4901 119.178 11.4578 119.228 11.4357C119.279 11.4137 119.333 11.4024 119.388 11.4027H120.828C120.927 11.4043 121.021 11.4418 121.094 11.5082C121.167 11.5745 121.212 11.6652 121.223 11.763C121.279 12.2201 121.451 12.5528 121.739 12.7612C122.138 13.0326 122.614 13.169 123.096 13.1505C123.488 13.1623 123.876 13.076 124.226 12.8994C124.534 12.7311 124.688 12.4373 124.688 12.0204C124.697 11.8211 124.629 11.626 124.5 11.4742C124.337 11.3088 124.144 11.1766 123.931 11.085C123.623 10.9439 123.307 10.8207 122.984 10.7158C122.605 10.5903 122.156 10.4291 121.637 10.2324C121.317 10.1131 121.005 9.97602 120.7 9.82183C120.426 9.6861 120.173 9.51237 119.947 9.30577C119.731 9.10106 119.566 8.84923 119.464 8.56998C119.343 8.22528 119.286 7.86151 119.295 7.49642C119.286 7.07103 119.387 6.65052 119.589 6.27595C119.788 5.92341 120.061 5.61835 120.389 5.38195C120.741 5.12875 121.137 4.94312 121.557 4.8345C122.021 4.71226 122.498 4.65188 122.978 4.65495C123.477 4.65054 123.972 4.73559 124.441 4.90607C124.877 5.0625 125.28 5.29789 125.63 5.60043C125.965 5.89309 126.237 6.25115 126.429 6.65264C126.561 6.92636 126.65 7.2191 126.692 7.52028C126.701 7.57691 126.697 7.63471 126.681 7.68974C126.665 7.74477 126.638 7.79575 126.6 7.83922C126.563 7.88269 126.517 7.91763 126.465 7.94167C126.413 7.96572 126.357 7.97831 126.299 7.97858H124.868C124.773 7.97971 124.681 7.94711 124.608 7.88661C124.535 7.82612 124.486 7.74167 124.47 7.64835C124.435 7.36137 124.315 7.09148 124.124 6.87363C123.88 6.59991 123.477 6.46304 122.914 6.46304C122.559 6.45131 122.209 6.5467 121.91 6.73677C121.777 6.82247 121.67 6.94149 121.598 7.08188C121.526 7.22227 121.492 7.37909 121.5 7.5366C121.492 7.72293 121.552 7.90591 121.669 8.0514C121.808 8.20517 121.98 8.32719 122.171 8.40926C122.394 8.51473 122.673 8.62648 123.012 8.74576C123.351 8.86505 123.759 9.00442 124.209 9.17267Z" fill="black"/>
<path d="M77.0878 12.9924C77.0824 12.7296 77.1308 12.4684 77.2301 12.2251C77.3295 11.9817 77.4776 11.7612 77.6654 11.5773C77.8453 11.3912 78.0615 11.2439 78.3006 11.1446C78.5396 11.0452 78.7965 10.9959 79.0554 10.9997C79.3178 10.997 79.5781 11.0467 79.8211 11.1459C80.0641 11.2451 80.2848 11.3918 80.4704 11.5774C80.656 11.7629 80.8027 11.9837 80.9018 12.2267C81.001 12.4696 81.0507 12.73 81.0481 12.9924C81.0517 13.251 81.0023 13.5077 80.9029 13.7465C80.8036 13.9853 80.6564 14.2013 80.4705 14.3811C80.2865 14.569 80.0661 14.7173 79.8228 14.8168C79.5794 14.9164 79.3183 14.9651 79.0554 14.9599C78.5341 14.9583 78.0346 14.7505 77.6659 14.3818C77.2973 14.0132 77.0895 13.5137 77.0878 12.9924Z" fill="black"/>
<path d="M47.8745 3.39032C48.0994 3.3947 48.3227 3.35307 48.5308 3.268C48.739 3.18292 48.9276 3.0562 49.085 2.8956C49.2441 2.74159 49.3701 2.55666 49.4552 2.35218C49.5402 2.1477 49.5826 1.92798 49.5797 1.70653C49.582 1.4819 49.5395 1.25905 49.4547 1.05105C49.3698 0.84304 49.2444 0.65405 49.0856 0.495143C48.9268 0.336237 48.7379 0.210607 48.5299 0.125611C48.322 0.0406142 48.0992 -0.00204103 47.8745 0.000142546C47.6531 -0.00279095 47.4334 0.0395807 47.2289 0.124655C47.0244 0.209729 46.8395 0.335709 46.6855 0.494858C46.5249 0.652254 46.3981 0.840815 46.3131 1.04896C46.228 1.25711 46.1864 1.48046 46.1907 1.70528C46.1917 2.15166 46.3694 2.57949 46.6849 2.89524C47.0005 3.211 47.4282 3.38899 47.8745 3.39032V3.39032Z" fill="black"/>
<path d="M50.9963 12.3995H49.0325V5.2964C49.0325 5.24435 49.0223 5.19282 49.0023 5.14475C48.9823 5.09668 48.9531 5.05302 48.9162 5.01628C48.8794 4.97954 48.8356 4.95043 48.7875 4.93063C48.7394 4.91082 48.6878 4.90072 48.6357 4.90088H45.0987C44.9937 4.90088 44.8929 4.94251 44.8185 5.01665C44.7442 5.09079 44.7022 5.19139 44.7019 5.2964V6.81068C44.7019 6.91591 44.7437 7.01683 44.8181 7.09124C44.8925 7.16565 44.9934 7.20746 45.0987 7.20746H46.7385V12.3995H44.7747C44.7226 12.3993 44.6709 12.4094 44.6227 12.4293C44.5745 12.4492 44.5307 12.4784 44.4938 12.5153C44.4569 12.5522 44.4277 12.596 44.4078 12.6442C44.3879 12.6924 44.3778 12.7441 44.3779 12.7962V14.3143C44.3779 14.4195 44.4197 14.5204 44.4941 14.5948C44.5686 14.6692 44.6695 14.711 44.7747 14.711H50.9963C51.1015 14.711 51.2025 14.6692 51.2769 14.5948C51.3513 14.5204 51.3931 14.4195 51.3931 14.3143V12.7962C51.3933 12.7441 51.3831 12.6924 51.3632 12.6442C51.3433 12.596 51.3141 12.5522 51.2773 12.5153C51.2404 12.4784 51.1966 12.4492 51.1483 12.4293C51.1001 12.4094 51.0485 12.3993 50.9963 12.3995V12.3995Z" fill="black"/>
</svg>
