<?xml version="1.0" encoding="UTF-8"?>
<!DOCTYPE svg PUBLIC "-//W3C//DTD SVG 1.1//EN" "http://www.w3.org/Graphics/SVG/1.1/DTD/svg11.dtd">
<svg xmlns="http://www.w3.org/2000/svg" version="1.1" width="640px" height="96px" style="shape-rendering:geometricPrecision; text-rendering:geometricPrecision; image-rendering:optimizeQuality; fill-rule:evenodd; clip-rule:evenodd" xmlns:xlink="http://www.w3.org/1999/xlink">
<g><path style="opacity:0.942" fill="#e20f20" d="M 13.5,15.5 C 18.1667,15.5 22.8333,15.5 27.5,15.5C 30.5647,28.7651 34.398,41.7651 39,54.5C 42.8144,41.561 46.3144,28.561 49.5,15.5C 53.1667,15.5 56.8333,15.5 60.5,15.5C 63.7099,29.0053 67.5433,42.3387 72,55.5C 75.8178,42.2276 79.3178,28.8942 82.5,15.5C 87.2137,15.1734 91.8804,15.5067 96.5,16.5C 90.3345,37.161 84.1678,57.8277 78,78.5C 76.0937,79.1311 74.0937,79.4644 72,79.5C 69.6977,79.3996 67.6977,78.733 66,77.5C 62.3333,64.8333 58.6667,52.1667 55,39.5C 51.4683,52.5944 47.635,65.5944 43.5,78.5C 39.6197,79.7948 35.7864,79.7948 32,78.5C 25.928,57.4527 19.7613,36.4527 13.5,15.5 Z"/></g>
<g><path style="opacity:0.931" fill="#e30f20" d="M 105.5,15.5 C 120.515,15.1673 135.515,15.5007 150.5,16.5C 149.574,20.0938 149.241,23.7604 149.5,27.5C 139.5,27.5 129.5,27.5 119.5,27.5C 119.5,32.1667 119.5,36.8333 119.5,41.5C 128.167,41.5 136.833,41.5 145.5,41.5C 145.5,45.5 145.5,49.5 145.5,53.5C 136.833,53.5 128.167,53.5 119.5,53.5C 119.5,58.5 119.5,63.5 119.5,68.5C 129.833,68.5 140.167,68.5 150.5,68.5C 150.5,72.1667 150.5,75.8333 150.5,79.5C 135.5,79.5 120.5,79.5 105.5,79.5C 105.5,58.1667 105.5,36.8333 105.5,15.5 Z"/></g>
<g><path style="opacity:0.945" fill="#e20f20" d="M 201.5,15.5 C 206.43,15.1975 211.263,15.5308 216,16.5C 223.308,37.4262 230.808,58.2595 238.5,79C 233.798,79.8283 229.131,79.6616 224.5,78.5C 222.731,74.3563 221.064,70.1896 219.5,66C 212.167,65.3333 204.833,65.3333 197.5,66C 195.544,70.0302 193.878,74.1969 192.5,78.5C 187.833,79.8333 183.167,79.8333 178.5,78.5C 185.978,57.3949 193.645,36.3949 201.5,15.5 Z M 207.5,31.5 C 208.497,31.4701 209.164,31.9701 209.5,33C 211.641,39.7586 213.975,46.4252 216.5,53C 211.136,53.8295 205.802,53.6628 200.5,52.5C 203.134,45.573 205.468,38.573 207.5,31.5 Z"/></g>
<g><path style="opacity:0.954" fill="#e30f20" d="M 248.5,15.5 C 259.838,15.3335 271.172,15.5001 282.5,16C 296.311,20.3775 300.811,29.5442 296,43.5C 294.167,48 291,51.1667 286.5,53C 290.5,61.6667 294.5,70.3333 298.5,79C 293.467,79.8289 288.467,79.6623 283.5,78.5C 280.203,70.9132 277.203,63.2465 274.5,55.5C 270.167,55.5 265.833,55.5 261.5,55.5C 261.5,63.5 261.5,71.5 261.5,79.5C 257.167,79.5 252.833,79.5 248.5,79.5C 248.5,58.1667 248.5,36.8333 248.5,15.5 Z M 261.5,26.5 C 267.176,26.3339 272.843,26.5006 278.5,27C 283.155,29.8966 284.655,34.0633 283,39.5C 281.457,41.3783 279.624,42.8783 277.5,44C 272.177,44.4994 266.844,44.666 261.5,44.5C 261.5,38.5 261.5,32.5 261.5,26.5 Z"/></g>
<g><path style="opacity:0.934" fill="#e30f20" d="M 310.5,15.5 C 325.167,15.5 339.833,15.5 354.5,15.5C 354.5,19.5 354.5,23.5 354.5,27.5C 344.5,27.5 334.5,27.5 324.5,27.5C 324.5,32.1667 324.5,36.8333 324.5,41.5C 333.167,41.5 341.833,41.5 350.5,41.5C 350.5,45.5 350.5,49.5 350.5,53.5C 341.833,53.5 333.167,53.5 324.5,53.5C 324.5,58.5 324.5,63.5 324.5,68.5C 334.833,68.5 345.167,68.5 355.5,68.5C 355.5,72.1667 355.5,75.8333 355.5,79.5C 340.5,79.5 325.5,79.5 310.5,79.5C 310.5,58.1667 310.5,36.8333 310.5,15.5 Z"/></g>
<g><path style="opacity:0.953" fill="#e20f20" d="M 388.5,15.5 C 395.09,15.189 401.59,15.5223 408,16.5C 412.282,30.6806 416.949,44.6806 422,58.5C 427.011,44.3009 431.511,29.9676 435.5,15.5C 442.167,15.5 448.833,15.5 455.5,15.5C 455.5,36.8333 455.5,58.1667 455.5,79.5C 450.833,79.5 446.167,79.5 441.5,79.5C 441.667,64.8295 441.5,50.1629 441,35.5C 436.654,49.8859 432.154,64.2192 427.5,78.5C 423.555,79.4909 419.555,79.8242 415.5,79.5C 411.515,64.375 407.015,49.375 402,34.5C 401.5,49.4963 401.333,64.4963 401.5,79.5C 397.167,79.5 392.833,79.5 388.5,79.5C 388.5,58.1667 388.5,36.8333 388.5,15.5 Z"/></g>
<g><path style="opacity:0.922" fill="#e30f20" d="M 469.5,15.5 C 484.5,15.5 499.5,15.5 514.5,15.5C 514.5,19.5 514.5,23.5 514.5,27.5C 504.167,27.5 493.833,27.5 483.5,27.5C 483.5,32.1667 483.5,36.8333 483.5,41.5C 492.5,41.5 501.5,41.5 510.5,41.5C 510.5,45.5 510.5,49.5 510.5,53.5C 501.5,53.5 492.5,53.5 483.5,53.5C 483.5,58.5 483.5,63.5 483.5,68.5C 493.833,68.5 504.167,68.5 514.5,68.5C 514.5,72.1667 514.5,75.8333 514.5,79.5C 499.5,79.5 484.5,79.5 469.5,79.5C 469.5,58.1667 469.5,36.8333 469.5,15.5 Z"/></g>
<g><path style="opacity:0.93" fill="#e30f20" d="M 523.5,15.5 C 540.833,15.5 558.167,15.5 575.5,15.5C 575.5,19.5 575.5,23.5 575.5,27.5C 569.167,27.5 562.833,27.5 556.5,27.5C 556.5,44.8333 556.5,62.1667 556.5,79.5C 551.833,79.5 547.167,79.5 542.5,79.5C 542.5,62.1667 542.5,44.8333 542.5,27.5C 536.167,27.5 529.833,27.5 523.5,27.5C 523.5,23.5 523.5,19.5 523.5,15.5 Z"/></g>
<g><path style="opacity:0.942" fill="#e20f20" d="M 594.5,15.5 C 599.5,15.5 604.5,15.5 609.5,15.5C 616.428,36.6153 623.761,57.6153 631.5,78.5C 626.88,79.4933 622.214,79.8266 617.5,79.5C 615.968,74.9026 614.635,70.236 613.5,65.5C 605.804,65.1692 598.138,65.5025 590.5,66.5C 588.731,70.6437 587.064,74.8104 585.5,79C 580.833,79.6667 576.167,79.6667 571.5,79C 579.31,57.8812 586.977,36.7145 594.5,15.5 Z M 601.5,30.5 C 604.334,37.6584 607,44.9917 609.5,52.5C 604.198,53.6628 598.864,53.8295 593.5,53C 596.269,45.5261 598.936,38.0261 601.5,30.5 Z"/></g>
</svg>
