<svg width="52" height="14" viewBox="0 0 52 14" fill="none" xmlns="http://www.w3.org/2000/svg">
<path d="M0.548 13.5V0.719999H4.652C6.656 0.719999 8.198 1.278 9.278 2.394C10.358 3.498 10.898 5.076 10.898 7.128C10.898 9.168 10.364 10.74 9.296 11.844C8.24 12.948 6.728 13.5 4.76 13.5H0.548ZM2.492 11.718H4.652C7.472 11.718 8.882 10.188 8.882 7.128C8.882 4.044 7.472 2.502 4.652 2.502H2.492V11.718ZM15.864 13.716C14.868 13.716 14.07 13.488 13.47 13.032C12.882 12.576 12.588 11.934 12.588 11.106C12.588 10.29 12.834 9.648 13.326 9.18C13.83 8.712 14.604 8.376 15.648 8.172L18.942 7.542C18.942 6.066 18.252 5.328 16.872 5.328C16.26 5.328 15.78 5.466 15.432 5.742C15.084 6.018 14.844 6.414 14.712 6.93L12.75 6.804C12.93 5.844 13.374 5.088 14.082 4.536C14.802 3.984 15.732 3.708 16.872 3.708C18.168 3.708 19.152 4.056 19.824 4.752C20.508 5.436 20.85 6.402 20.85 7.65V11.376C20.85 11.604 20.886 11.766 20.958 11.862C21.042 11.946 21.174 11.988 21.354 11.988H21.696V13.5C21.528 13.536 21.294 13.554 20.994 13.554C20.454 13.554 20.022 13.44 19.698 13.212C19.374 12.984 19.176 12.588 19.104 12.024C18.864 12.528 18.45 12.936 17.862 13.248C17.274 13.56 16.608 13.716 15.864 13.716ZM16.17 12.204C17.034 12.204 17.712 11.958 18.204 11.466C18.696 10.974 18.942 10.35 18.942 9.594V8.982L16.134 9.522C15.558 9.63 15.15 9.804 14.91 10.044C14.682 10.272 14.568 10.566 14.568 10.926C14.568 11.334 14.706 11.652 14.982 11.88C15.27 12.096 15.666 12.204 16.17 12.204ZM23.307 13.5V3.924H25.053L25.089 5.562C25.329 4.986 25.683 4.536 26.151 4.212C26.619 3.876 27.153 3.708 27.753 3.708C28.461 3.708 29.055 3.882 29.535 4.23C30.027 4.578 30.375 5.064 30.579 5.688C30.795 5.052 31.137 4.566 31.605 4.23C32.085 3.882 32.667 3.708 33.351 3.708C34.359 3.708 35.139 4.026 35.691 4.662C36.243 5.286 36.519 6.18 36.519 7.344V13.5H34.611V7.812C34.611 6.144 34.005 5.31 32.793 5.31C32.193 5.31 31.713 5.538 31.353 5.994C30.993 6.45 30.813 7.08 30.813 7.884V13.5H28.995V7.884C28.995 7.08 28.857 6.45 28.581 5.994C28.317 5.538 27.861 5.31 27.213 5.31C26.601 5.31 26.115 5.538 25.755 5.994C25.395 6.45 25.215 7.08 25.215 7.884V13.5H23.307ZM39.057 13.5V3.924H40.965V13.5H39.057ZM39.021 2.538V0.629999H41.001V2.538H39.021ZM46.1687 13.716C45.1727 13.716 44.3747 13.488 43.7747 13.032C43.1867 12.576 42.8927 11.934 42.8927 11.106C42.8927 10.29 43.1387 9.648 43.6307 9.18C44.1347 8.712 44.9087 8.376 45.9527 8.172L49.2467 7.542C49.2467 6.066 48.5567 5.328 47.1767 5.328C46.5647 5.328 46.0847 5.466 45.7367 5.742C45.3887 6.018 45.1487 6.414 45.0167 6.93L43.0547 6.804C43.2347 5.844 43.6787 5.088 44.3867 4.536C45.1067 3.984 46.0367 3.708 47.1767 3.708C48.4727 3.708 49.4567 4.056 50.1287 4.752C50.8127 5.436 51.1547 6.402 51.1547 7.65V11.376C51.1547 11.604 51.1907 11.766 51.2627 11.862C51.3467 11.946 51.4787 11.988 51.6587 11.988H52.0007V13.5C51.8327 13.536 51.5987 13.554 51.2987 13.554C50.7587 13.554 50.3267 13.44 50.0027 13.212C49.6787 12.984 49.4807 12.588 49.4087 12.024C49.1687 12.528 48.7547 12.936 48.1667 13.248C47.5787 13.56 46.9127 13.716 46.1687 13.716ZM46.4747 12.204C47.3387 12.204 48.0167 11.958 48.5087 11.466C49.0007 10.974 49.2467 10.35 49.2467 9.594V8.982L46.4387 9.522C45.8627 9.63 45.4547 9.804 45.2147 10.044C44.9867 10.272 44.8727 10.566 44.8727 10.926C44.8727 11.334 45.0107 11.652 45.2867 11.88C45.5747 12.096 45.9707 12.204 46.4747 12.204Z" fill="#00587C"/>
</svg>
