<svg width="38" height="71" viewBox="0 0 38 71" fill="none" xmlns="http://www.w3.org/2000/svg">
<path d="M28.8245 38.7871C29.5233 38.7856 30.2134 38.9401 30.8432 39.239C31.2054 37.6779 31.2065 36.0562 30.8462 34.4946C30.4861 32.9331 29.7738 31.4717 28.7624 30.2192C27.7511 28.9667 26.4666 27.9553 25.0046 27.2602C23.5426 26.5651 21.9406 26.2041 20.3178 26.2041C19.5728 26.2042 18.8297 26.2796 18.1003 26.4293C18.8976 27.6972 19.2796 29.1768 19.194 30.6666C19.1084 32.1565 18.5593 33.584 17.6218 34.7547C16.6842 35.9255 15.4036 36.7824 13.9546 37.2088C12.5056 37.6353 10.9587 37.6104 9.52441 37.1377C9.5705 38.9396 10.079 40.7006 11.0025 42.2557C11.926 43.8109 13.2343 45.1093 14.8048 46.0295C16.3755 46.9498 18.1568 47.4617 19.9825 47.5173C21.8081 47.573 23.6182 47.1706 25.2433 46.3479C24.6753 45.6755 24.3131 44.8572 24.1993 43.989C24.0854 43.1209 24.2246 42.2387 24.6006 41.4457C24.9765 40.6528 25.5736 39.982 26.3219 39.5119C27.0702 39.0418 27.9388 38.7918 28.8259 38.7914L28.8245 38.7871Z" fill="#00CFC5"/>
<path d="M30.8436 39.2388C30.4912 40.7534 29.8078 42.1737 28.8414 43.4006C27.8749 44.6275 26.6485 45.6312 25.248 46.3417C25.6945 46.8707 26.2554 47.2942 26.8895 47.5811C27.5236 47.8679 28.2148 48.0108 28.9122 47.9992C29.6096 47.9877 30.2956 47.8219 30.9196 47.5142C31.5436 47.2065 32.0897 46.7647 32.5179 46.2213C32.9459 45.6778 33.2452 45.0465 33.3934 44.3738C33.5418 43.7012 33.5353 43.0042 33.3748 42.3344C33.2141 41.6645 32.9033 41.0386 32.4653 40.5029C32.0273 39.9672 31.4731 39.5353 30.8436 39.2388Z" fill="#CA30FF"/>
<path d="M30.8431 39.2388C29.8826 38.7848 28.7936 38.6688 27.757 38.9101C26.7204 39.1513 25.7987 39.7354 25.145 40.5652C24.4913 41.395 24.1452 42.4205 24.1638 43.4713C24.1824 44.5223 24.5649 45.5352 25.2476 46.3418C26.6481 45.6314 27.8745 44.6276 28.841 43.4007C29.8074 42.1739 30.4907 40.7535 30.8431 39.2388Z" fill="#BFF3F1"/>
<path d="M18.0988 26.4292C17.4763 25.4395 16.6216 24.6123 15.6068 24.0174C14.592 23.4226 13.447 23.0776 12.2685 23.0116C11.0901 22.9457 9.91285 23.1607 8.83641 23.6385C7.75997 24.1163 6.81593 24.8428 6.08404 25.7567C5.35214 26.6706 4.85397 27.7449 4.63162 28.8889C4.40927 30.0328 4.46932 31.2128 4.80659 32.3291C5.14398 33.4453 5.74864 34.465 6.56954 35.302C7.39045 36.139 8.40356 36.7686 9.52304 37.1375C9.52304 37.046 9.51565 36.9544 9.51565 36.8629C9.51612 34.4159 10.3693 32.0435 11.932 30.1437C13.4949 28.2439 15.6723 26.9324 18.0988 26.4292Z" fill="#007EFF"/>
<path d="M17.0518 35.3865C18.2244 34.2288 18.9659 32.7139 19.1559 31.0878C19.346 29.4617 18.9734 27.82 18.0988 26.4292C15.6722 26.9324 13.4948 28.2439 11.932 30.1437C10.3691 32.0435 9.51598 34.4159 9.51562 36.8629C9.51562 36.9544 9.51563 37.046 9.5229 37.1375C10.8188 37.565 12.2097 37.6277 13.5396 37.3183C14.8696 37.0091 16.0858 36.34 17.0518 35.3865Z" fill="#BFF3F1"/>
</svg>
