<svg width="40" height="71" viewBox="0 0 40 71" fill="none" xmlns="http://www.w3.org/2000/svg">
<g clip-path="url(#clip0_4001_79479)">
<path d="M9.27152 42.7779L7.75625 42.8347C7.62682 42.8411 7.50371 42.901 7.41847 42.9989L6.18732 44.3879C6.08945 44.5015 6.05157 44.6562 6.08314 44.8014L6.25361 45.5654C6.30096 45.7832 6.49668 45.9379 6.71766 45.9379H8.66226C8.87377 45.9379 9.06002 45.7958 9.12 45.5938L9.75136 43.384C9.83975 43.0715 9.59668 42.7621 9.27152 42.7779Z" fill="#F15B5B"/>
<path d="M25.0934 39.3087C24.9892 38.9615 24.5441 38.8668 24.3042 39.1383L23.1709 40.3915C23.1015 40.4704 23.0604 40.5746 23.0573 40.6788V45.4677C23.051 45.7297 23.2593 45.9444 23.5213 45.9444H26.4698C26.7792 45.9444 27.0001 45.6476 26.9117 45.3509L25.0966 39.3087H25.0934Z" fill="#F15B5B"/>
<path d="M25.6113 37.9577C25.6681 38.0177 25.7376 38.0619 25.8165 38.084L27.6727 38.6175C27.9095 38.6838 28.1589 38.5449 28.222 38.305L30.3592 31.2937C30.4002 31.1453 30.3592 30.9843 30.2518 30.8738L24.8884 25.1947C24.6548 24.9485 24.2413 25.0463 24.1403 25.3715L23.6604 26.9594C23.6257 27.073 23.5499 27.1677 23.4457 27.2214L18.8589 29.6742C18.6032 29.81 18.5464 30.1541 18.7421 30.3656L25.6113 37.9577Z" fill="#F15B5B"/>
<path d="M32.5247 31.0789C32.329 30.7096 31.7892 30.7633 31.6661 31.161L29.7404 37.4273C29.6647 37.6735 29.8036 37.9356 30.0498 38.0113L36.3097 39.937C36.7075 40.0601 37.0548 39.6402 36.859 39.2709L32.5247 31.0821V31.0789Z" fill="#F15B5B"/>
<path d="M39.3118 32.2027L36.0003 33.9547C35.773 34.0747 35.6846 34.3588 35.8046 34.5861L37.5598 37.8976C37.7555 38.2638 38.2953 38.2133 38.4184 37.8155L39.9747 32.752C40.0978 32.3542 39.678 32.007 39.3086 32.2027H39.3118Z" fill="#F15B5B"/>
<path d="M9.72293 40.4828L4.9151 35.091C4.76673 34.9237 4.52365 34.8827 4.32793 34.99L2.54433 35.9654C2.29494 36.1012 2.115 36.3379 2.05187 36.6126L0.0125644 45.3601C-0.0568856 45.66 0.170405 45.9441 0.476616 45.9441H2.64535C2.78425 45.9441 2.91368 45.8842 3.00522 45.78L6.70817 41.5341C6.7934 41.4362 6.91652 41.3762 7.04911 41.3699L9.38515 41.2784C9.78922 41.2626 9.99126 40.7827 9.72293 40.4828Z" fill="#F15B5B"/>
<path d="M23.2498 37.525L15.9449 29.4246C15.8029 29.2668 15.5693 29.2257 15.3799 29.3299L6.60078 34.1346C6.33245 34.2829 6.26931 34.6428 6.4745 34.8733L12.0684 41.1427C12.1631 41.25 12.302 41.3069 12.444 41.3005L14.9253 41.2058C15.121 41.1995 15.2978 41.3132 15.3704 41.4931L17.0593 45.6538C17.1288 45.8274 17.2992 45.9411 17.4855 45.9411H21.1379C21.3936 45.9411 21.5988 45.7359 21.5988 45.4802V40.1609C21.5988 40.0473 21.6398 39.9368 21.7156 39.8547L23.2498 38.1406C23.4077 37.9638 23.4077 37.6986 23.2498 37.525Z" fill="#F15B5B"/>
</g>
<defs>
<clipPath id="clip0_4001_79479">
<rect width="40" height="20.8886" fill="white" transform="translate(0 25.0557)"/>
</clipPath>
</defs>
</svg>
